<svg height="62.411" width="70" xmlns="http://www.w3.org/2000/svg"><path d="m-91.831738 531.64822c-4.78557-8.525-8.726282-15.5464-8.757132-15.6033-.0308-.057 3.890582-7.1243 8.714272-15.7055l8.77036-15.6022h17.54362 17.54362l8.67555 15.4434c4.77156 8.4939 8.71009 15.5334 8.75229 15.6434.0439.1145-3.65198 6.8386-8.64439 15.7271l-8.72113 15.5271-17.58801.035-17.58802.035-8.70103-15.4998zm40.69127 2.8117c1.32106-.5199 2.36409-1.5657 2.86592-2.8735.20443-.5327.23084-1.9055.26478-13.7664l.0377-13.1747-3.59525-3.6993-3.59526-3.6993h-12.0741c-12.01214 0-12.07815 0-12.86273.295-.94846.3549-2.0049 1.2968-2.45852 2.192-.61241 1.2085-.62616 1.6049-.58372 16.827l.0402 14.434.43367.9153c.70895 1.4964 1.93438 2.465 3.44721 2.7247.36053.062 6.68685.1026 14.05849.091 12.47099-.02 13.44599-.039 14.02157-.2654zm-28.04308-2.4512c-.44844-.1788-.93198-.6367-1.21596-1.1515-.2066-.3745-.2314-1.6752-.26994-14.159-.0233-7.5607-.003-14.1311.0448-14.601.10106-.9898.45747-1.6085 1.16658-2.025.47432-.2787.62941-.2824 11.75291-.2824h11.27224l.037 3.0586.037 3.0586h2.9529 2.95289l-.00082 12.0627c-.00041 7.4924-.0521 12.2473-.13612 12.5499-.15355.5528-.84303 1.2807-1.41856 1.4976-.51842.1955-26.68401.1873-27.17496-.01zm10.95476-3.6468c.65948-.2739 1.37422-1.0899 1.71309-1.9557.41724-1.0661.53414-4.6012.1964-5.9388-.45349-1.7962-1.43547-2.6008-3.17404-2.6008-1.53414 0-2.26944.3414-2.97039 1.3788-.57681.8538-.83243 2.1496-.82626 4.1886.0102 3.3722.78342 4.83 2.72954 5.146.77211.1254 1.71768.037 2.33166-.2181zm-2.16498-1.4805c-.19343-.1089-.42688-.3631-.51879-.5649-.51095-1.1213-.53942-4.7727-.0459-5.8858.33112-.7468.63022-.977 1.26964-.977 1.16096 0 1.57187 1.012 1.56036 3.8428-.008 1.9289-.16908 2.752-.64678 3.3017-.37252.4287-1.12613.5605-1.61853.2832zm12.24251.8141v-.7561h-.96226-.96227v-4.4529c0-4.9708.0767-4.6199-1.00892-4.6199-.47827 0-.79867.1502-1.92054.9005l-1.34649.9004.0416.6461c.0501.7784.18657.787 1.38192.087l.79043-.463v3.501 3.5011h-1.01629c-1.08172 0-1.18317.065-1.18317.7561 0 .7752-.0806.756 3.17643.756h3.00955v-.756zm-1.71341-13.9409c1.13614-.5025 1.76287-1.7025 2.006-3.8407.15561-1.3684.0268-3.3479-.28846-4.4347-.41263-1.4222-1.52423-2.1859-3.17489-2.181-1.71315.01-2.6588.6598-3.3053 2.2883-.28782.725-.31874 1.0252-.32339 3.1386-.006 2.5521.1598 3.399.8391 4.296.81592 1.0774 2.72438 1.407 4.24694.7335zm-2.38653-1.5937c-.5586-.47-.74456-1.3424-.74456-3.493 0-2.8052.43297-3.7974 1.64214-3.7632.58609.017 1.0884.4585 1.28401 1.1296.24626.8449.32121 3.4239.13204 4.5437-.14452.8556-.24915 1.1036-.62333 1.4778-.55782.5578-1.11139.5922-1.6903.1051zm-4.17522.9975-.0416-.7217-.9279-.041-.9279-.041v-4.4461-4.446l-.49266-.092c-.76455-.1434-1.26149.033-2.56356.9082l-1.20524.8103v.6838c0 .4009.0618.6838.1495.6838.0822 0 .53665-.2165 1.00984-.4811s.9008-.4812.95023-.4812c.0494 0 .0899 1.5439.0899 3.4309v3.4309l-1.06536.04-1.06537.04-.0435.53c-.0783.9533-.21557.9134 3.13939.9134h3.03576l-.0415-.7217z" fill="#00bcf2" transform="translate(100.589 -484.737)"/></svg>